<?xml version="1.0" encoding="UTF-8" standalone="no"?>
<!-- Created with Inkscape (http://www.inkscape.org/) -->

<svg
   xmlns:dc="http://purl.org/dc/elements/1.1/"
   xmlns:cc="http://creativecommons.org/ns#"
   xmlns:rdf="http://www.w3.org/1999/02/22-rdf-syntax-ns#"
   xmlns:svg="http://www.w3.org/2000/svg"
   xmlns="http://www.w3.org/2000/svg"
   xmlns:sodipodi="http://sodipodi.sourceforge.net/DTD/sodipodi-0.dtd"
   xmlns:inkscape="http://www.inkscape.org/namespaces/inkscape"
   sodipodi:docname="website_image_kit.svg"
   inkscape:version="0.48.5 r10040"
   version="1.1"
   id="svg2"
   height="76"
   width="76">
  <defs
     id="defs4">
    <marker
       style="overflow:visible"
       id="Arrow1Lend"
       refX="0"
       refY="0"
       orient="auto"
       inkscape:stockid="Arrow1Lend">
      <path
         transform="matrix(-0.8,0,0,-0.8,-10,0)"
         style="fill-rule:evenodd;stroke:#000000;stroke-width:1pt"
         d="M 0,0 5,-5 -12.5,0 5,5 0,0 z"
         id="path3881"
         inkscape:connector-curvature="0" />
    </marker>
    <marker
       style="overflow:visible"
       id="Arrow1Sstart"
       refX="0"
       refY="0"
       orient="auto"
       inkscape:stockid="Arrow1Sstart">
      <path
         transform="matrix(0.2,0,0,0.2,1.2,0)"
         style="fill-rule:evenodd;stroke:#000000;stroke-width:1pt"
         d="M 0,0 5,-5 -12.5,0 5,5 0,0 z"
         id="path3890"
         inkscape:connector-curvature="0" />
    </marker>
    <marker
       style="overflow:visible"
       id="Arrow1Send"
       refX="0"
       refY="0"
       orient="auto"
       inkscape:stockid="Arrow1Send">
      <path
         transform="matrix(-0.2,0,0,-0.2,-1.2,0)"
         style="fill-rule:evenodd;stroke:#000000;stroke-width:1pt"
         d="M 0,0 5,-5 -12.5,0 5,5 0,0 z"
         id="path3893"
         inkscape:connector-curvature="0" />
    </marker>
    <marker
       style="overflow:visible"
       id="Arrow1Lend-2"
       refX="0"
       refY="0"
       orient="auto"
       inkscape:stockid="Arrow1Lend">
      <path
         transform="matrix(-0.8,0,0,-0.8,-10,0)"
         style="fill-rule:evenodd;stroke:#000000;stroke-width:1pt"
         d="M 0,0 5,-5 -12.5,0 5,5 0,0 z"
         id="path3881-0"
         inkscape:connector-curvature="0" />
    </marker>
    <marker
       style="overflow:visible"
       id="Arrow1Sstart-7"
       refX="0"
       refY="0"
       orient="auto"
       inkscape:stockid="Arrow1Sstart">
      <path
         transform="matrix(0.2,0,0,0.2,1.2,0)"
         style="fill-rule:evenodd;stroke:#000000;stroke-width:1pt"
         d="M 0,0 5,-5 -12.5,0 5,5 0,0 z"
         id="path3890-3"
         inkscape:connector-curvature="0" />
    </marker>
    <marker
       style="overflow:visible"
       id="Arrow1Send-4"
       refX="0"
       refY="0"
       orient="auto"
       inkscape:stockid="Arrow1Send">
      <path
         transform="matrix(-0.2,0,0,-0.2,-1.2,0)"
         style="fill-rule:evenodd;stroke:#000000;stroke-width:1pt"
         d="M 0,0 5,-5 -12.5,0 5,5 0,0 z"
         id="path3893-6"
         inkscape:connector-curvature="0" />
    </marker>
    <marker
       style="overflow:visible"
       id="Arrow1Lend-29"
       refX="0"
       refY="0"
       orient="auto"
       inkscape:stockid="Arrow1Lend">
      <path
         transform="matrix(-0.8,0,0,-0.8,-10,0)"
         style="fill-rule:evenodd;stroke:#000000;stroke-width:1pt"
         d="M 0,0 5,-5 -12.5,0 5,5 0,0 z"
         id="path3881-3"
         inkscape:connector-curvature="0" />
    </marker>
    <marker
       style="overflow:visible"
       id="Arrow1Sstart-3"
       refX="0"
       refY="0"
       orient="auto"
       inkscape:stockid="Arrow1Sstart">
      <path
         transform="matrix(0.2,0,0,0.2,1.2,0)"
         style="fill-rule:evenodd;stroke:#000000;stroke-width:1pt"
         d="M 0,0 5,-5 -12.5,0 5,5 0,0 z"
         id="path3890-2"
         inkscape:connector-curvature="0" />
    </marker>
    <marker
       style="overflow:visible"
       id="Arrow1Send-8"
       refX="0"
       refY="0"
       orient="auto"
       inkscape:stockid="Arrow1Send">
      <path
         transform="matrix(-0.2,0,0,-0.2,-1.2,0)"
         style="fill-rule:evenodd;stroke:#000000;stroke-width:1pt"
         d="M 0,0 5,-5 -12.5,0 5,5 0,0 z"
         id="path3893-8"
         inkscape:connector-curvature="0" />
    </marker>
    <marker
       style="overflow:visible"
       id="Arrow1Lend-1"
       refX="0"
       refY="0"
       orient="auto"
       inkscape:stockid="Arrow1Lend">
      <path
         transform="matrix(-0.8,0,0,-0.8,-10,0)"
         style="fill-rule:evenodd;stroke:#000000;stroke-width:1pt"
         d="M 0,0 5,-5 -12.5,0 5,5 0,0 z"
         id="path3881-2"
         inkscape:connector-curvature="0" />
    </marker>
    <marker
       style="overflow:visible"
       id="Arrow1Sstart-6"
       refX="0"
       refY="0"
       orient="auto"
       inkscape:stockid="Arrow1Sstart">
      <path
         transform="matrix(0.2,0,0,0.2,1.2,0)"
         style="fill-rule:evenodd;stroke:#000000;stroke-width:1pt"
         d="M 0,0 5,-5 -12.5,0 5,5 0,0 z"
         id="path3890-27"
         inkscape:connector-curvature="0" />
    </marker>
    <marker
       style="overflow:visible"
       id="Arrow1Send-0"
       refX="0"
       refY="0"
       orient="auto"
       inkscape:stockid="Arrow1Send">
      <path
         transform="matrix(-0.2,0,0,-0.2,-1.2,0)"
         style="fill-rule:evenodd;stroke:#000000;stroke-width:1pt"
         d="M 0,0 5,-5 -12.5,0 5,5 0,0 z"
         id="path3893-9"
         inkscape:connector-curvature="0" />
    </marker>
    <marker
       style="overflow:visible"
       id="Arrow1Lend-7"
       refX="0"
       refY="0"
       orient="auto"
       inkscape:stockid="Arrow1Lend">
      <path
         transform="matrix(-0.8,0,0,-0.8,-10,0)"
         style="fill-rule:evenodd;stroke:#000000;stroke-width:1pt"
         d="M 0,0 5,-5 -12.5,0 5,5 0,0 z"
         id="path3881-25"
         inkscape:connector-curvature="0" />
    </marker>
    <marker
       style="overflow:visible"
       id="Arrow1Sstart-4"
       refX="0"
       refY="0"
       orient="auto"
       inkscape:stockid="Arrow1Sstart">
      <path
         transform="matrix(0.2,0,0,0.2,1.2,0)"
         style="fill-rule:evenodd;stroke:#000000;stroke-width:1pt"
         d="M 0,0 5,-5 -12.5,0 5,5 0,0 z"
         id="path3890-4"
         inkscape:connector-curvature="0" />
    </marker>
    <marker
       style="overflow:visible"
       id="Arrow1Send-47"
       refX="0"
       refY="0"
       orient="auto"
       inkscape:stockid="Arrow1Send">
      <path
         transform="matrix(-0.2,0,0,-0.2,-1.2,0)"
         style="fill-rule:evenodd;stroke:#000000;stroke-width:1pt"
         d="M 0,0 5,-5 -12.5,0 5,5 0,0 z"
         id="path3893-0"
         inkscape:connector-curvature="0" />
    </marker>
  </defs>
  <sodipodi:namedview
     id="base"
     pagecolor="#ffffff"
     bordercolor="#666666"
     borderopacity="1.0"
     inkscape:pageopacity="0.0"
     inkscape:pageshadow="2"
     inkscape:zoom="3.959798"
     inkscape:cx="30.449171"
     inkscape:cy="34.766829"
     inkscape:document-units="px"
     inkscape:current-layer="layer1"
     showgrid="true"
     inkscape:snap-global="true"
     inkscape:window-width="1198"
     inkscape:window-height="700"
     inkscape:window-x="112"
     inkscape:window-y="7"
     inkscape:window-maximized="0"
     showguides="true"
     inkscape:guide-bbox="true"
     fit-margin-top="0"
     fit-margin-left="0"
     fit-margin-right="0"
     fit-margin-bottom="0">
    <sodipodi:guide
       orientation="0,1"
       position="7.249175,-224.71188"
       id="guide3086" />
    <sodipodi:guide
       orientation="0,1"
       position="25.5,-299.50001"
       id="guide3088" />
    <sodipodi:guide
       orientation="0,1"
       position="50.5,-324.50001"
       id="guide3090" />
    <sodipodi:guide
       orientation="0,1"
       position="50.5,-399.50001"
       id="guide3092" />
    <sodipodi:guide
       orientation="0,1"
       position="50.5,-424.50001"
       id="guide3094" />
    <sodipodi:guide
       orientation="0,1"
       position="50.5,-499.50001"
       id="guide3100" />
    <sodipodi:guide
       orientation="0,1"
       position="100.5,-524.50001"
       id="guide3102" />
    <sodipodi:guide
       orientation="0,1"
       position="75.5,-599.50001"
       id="guide3104" />
    <sodipodi:guide
       orientation="0,1"
       position="75.5,-624.50001"
       id="guide3106" />
    <sodipodi:guide
       orientation="0,1"
       position="75.5,-699.50001"
       id="guide3108" />
    <sodipodi:guide
       orientation="0,1"
       position="75.5,-724.50001"
       id="guide3110" />
    <sodipodi:guide
       orientation="0,1"
       position="75.5,-799.50001"
       id="guide3112" />
    <sodipodi:guide
       orientation="1,0"
       position="0.5,-749.50001"
       id="guide3114" />
    <sodipodi:guide
       orientation="1,0"
       position="75.499999,-187.3125"
       id="guide3116" />
    <sodipodi:guide
       orientation="0,1"
       position="-24.500001,-199.5"
       id="guide3124" />
    <sodipodi:guide
       orientation="0,1"
       position="-24.500001,-124.5"
       id="guide3126" />
    <sodipodi:guide
       orientation="0,1"
       position="0.5,-99.499998"
       id="guide5344" />
    <sodipodi:guide
       orientation="0,1"
       position="72.499999,-24.499998"
       id="guide5346" />
    <sodipodi:guide
       orientation="1,0"
       position="100.5,-24.499998"
       id="guide4298" />
    <sodipodi:guide
       orientation="0,1"
       position="125.5,-49.499998"
       id="guide4300" />
    <inkscape:grid
       type="xygrid"
       id="grid4226"
       empspacing="5"
       visible="true"
       enabled="true"
       snapvisiblegridlinesonly="true"
       spacingx="25px"
       spacingy="25px"
       originx="0.5px"
       originy="-99.5px" />
  </sodipodi:namedview>
  <metadata
     id="metadata7">
    <rdf:RDF>
      <cc:Work
         rdf:about="">
        <dc:format>image/svg+xml</dc:format>
        <dc:type
           rdf:resource="http://purl.org/dc/dcmitype/StillImage" />
        <dc:title></dc:title>
      </cc:Work>
    </rdf:RDF>
  </metadata>
  <g
     inkscape:label="Layer 1"
     inkscape:groupmode="layer"
     id="layer1"
     transform="translate(-66.49196,170.61897)">
    <g
       id="g3725"
       transform="translate(55.370958,-101.49495)">
      <path
         inkscape:connector-curvature="0"
         id="path3825-5"
         d="m -173,236.36218 0,-10 3.5,-12.00004 3.5,12.00004 0,10"
         style="fill:none;stroke:#000000;stroke-width:1.21603858;stroke-linecap:round;stroke-linejoin:miter;stroke-miterlimit:4;stroke-opacity:1;stroke-dasharray:none;stroke-dashoffset:0" />
      <path
         sodipodi:nodetypes="cccc"
         inkscape:connector-curvature="0"
         id="path2987-9"
         d="m -166,236.36218 0,31 -7,0 0,-31"
         style="fill:none;stroke:#000000;stroke-width:1.21603858;stroke-linecap:round;stroke-linejoin:miter;stroke-miterlimit:4;stroke-opacity:1;stroke-dasharray:none;stroke-dashoffset:0" />
      <path
         sodipodi:nodetypes="ccccc"
         inkscape:connector-curvature="0"
         id="path3757-5"
         d="m -175,252.36218 0,15 -4,-3 0,-8 z"
         style="fill:none;stroke:#000000;stroke-width:1.29999995;stroke-linecap:round;stroke-linejoin:miter;stroke-miterlimit:4;stroke-opacity:1;stroke-dasharray:none;stroke-dashoffset:0" />
      <path
         sodipodi:nodetypes="ccccc"
         inkscape:connector-curvature="0"
         id="path3757-8-6"
         d="m -164,252.36218 0,15 4,-3 0,-8 z"
         style="fill:none;stroke:#000000;stroke-width:1.29999995;stroke-linecap:round;stroke-linejoin:miter;stroke-miterlimit:4;stroke-opacity:1;stroke-dasharray:none;stroke-dashoffset:0" />
    </g>
    <rect
       style="fill:none;stroke:#000000;stroke-width:1.21603858;stroke-linecap:round;stroke-linejoin:miter;stroke-miterlimit:4;stroke-opacity:1;stroke-dasharray:none;stroke-dashoffset:0"
       id="rect3777-9"
       width="7"
       height="3"
       x="-117.62904"
       y="167.8672" />
    <path
       style="fill:#0088cc;fill-opacity:1;fill-rule:nonzero;stroke:none"
       d="m -133.62905,123.86723 4,10.00002 -4,-2 -4,2 z"
       id="path4878-5"
       inkscape:connector-curvature="0"
       sodipodi:nodetypes="ccccc" />
    <path
       style="fill:none;stroke:#0088cc;stroke-width:3;stroke-linecap:round;stroke-miterlimit:4;stroke-opacity:1;stroke-dasharray:none"
       d="m -133.62905,135.86725 0,15"
       id="path4898"
       inkscape:connector-curvature="0" />
    <g
       id="sim-plot"
       inkscape:label="#g4826"
       transform="translate(143.44167,29.294423)">
      <path
         inkscape:connector-curvature="0"
         id="path5822"
         d="m -61.714286,366.57647 0,-55.00002"
         style="fill:none;stroke:#000000;stroke-width:1.21599996;stroke-linecap:round;stroke-linejoin:miter;stroke-miterlimit:4;stroke-opacity:1;stroke-dasharray:none;stroke-dashoffset:0" />
      <path
         inkscape:connector-curvature="0"
         id="path5824"
         d="m -66.714286,361.57647 55,0"
         style="fill:none;stroke:#000000;stroke-width:1.21599996;stroke-linecap:round;stroke-linejoin:miter;stroke-miterlimit:4;stroke-opacity:1;stroke-dasharray:none;stroke-dashoffset:0" />
      <path
         sodipodi:nodetypes="cc"
         inkscape:connector-curvature="0"
         id="path4898-2"
         d="m -14.714286,316.57645 c -32,0 -32,45.00002 -47,45.00002"
         style="fill:none;stroke:#0088cc;stroke-width:3;stroke-linecap:round;stroke-miterlimit:4;stroke-opacity:1;stroke-dasharray:none" />
    </g>
    <path
       style="fill:none;stroke:#000000;stroke-width:1.29999995;stroke-linecap:round;stroke-linejoin:round;stroke-miterlimit:4;stroke-opacity:1;stroke-dasharray:none;stroke-dashoffset:0"
       d="m 113.46408,582.66022 c 3,-2 7,-8 7,-22 l -35.999996,0 c 0,14 4,19 8,22"
       id="path6217"
       inkscape:connector-curvature="0"
       sodipodi:nodetypes="cccc" />
    <path
       style="fill:none;stroke:#000000;stroke-width:1.29999995;stroke-linecap:round;stroke-linejoin:round;stroke-miterlimit:4;stroke-opacity:1;stroke-dasharray:none;stroke-dashoffset:0"
       d="m 79.464084,582.66022 44.999996,0 c -1,2 -3,8 -13,8 l -16.999996,0 c -9,0 -13,-5 -15,-8 z"
       id="path6219"
       inkscape:connector-curvature="0"
       sodipodi:nodetypes="ccccc" />
    <path
       style="fill:none;stroke:#000000;stroke-width:1.29999995;stroke-linecap:round;stroke-linejoin:round;stroke-miterlimit:4;stroke-opacity:1;stroke-dasharray:none;stroke-dashoffset:0"
       d="m 120.33016,566.33879 c 4,-7 11.13392,-3.67856 11.13392,2.32144 0,3 -1.82142,8.04464 -5.82142,9.04464 -4,1 -6.29465,-2.13393 -6.49108,-4.66964"
       id="path6221"
       inkscape:connector-curvature="0"
       sodipodi:nodetypes="cssc" />
    <path
       style="fill:none;stroke:#0088cc;stroke-width:2.5;stroke-linecap:round;stroke-linejoin:round;stroke-miterlimit:4;stroke-opacity:1;stroke-dasharray:none;stroke-dashoffset:0"
       d="m 103.46408,556.66025 c -3.999996,-4 -1.58114,-6.4189 0,-8 2,-2 4,-4.00004 0,-8.00004"
       id="path6223-1"
       inkscape:connector-curvature="0"
       sodipodi:nodetypes="csc" />
    <path
       style="fill:none;stroke:#0088cc;stroke-width:2.5;stroke-linecap:round;stroke-linejoin:round;stroke-miterlimit:4;stroke-opacity:1;stroke-dasharray:none;stroke-dashoffset:0"
       d="m 98.464084,556.66025 c -4,-4 -1.58114,-6.4189 0,-8 1.999996,-2 3.999996,-4.00003 0,-8.00003"
       id="path6223"
       inkscape:connector-curvature="0"
       sodipodi:nodetypes="csc" />
    <path
       style="fill:none;stroke:#0088cc;stroke-width:2.5;stroke-linecap:round;stroke-linejoin:round;stroke-miterlimit:4;stroke-opacity:1;stroke-dasharray:none;stroke-dashoffset:0"
       d="m 108.46408,556.66025 c -4,-4 -1.58114,-6.4189 0,-8 2,-2 4,-4.00004 0,-8.00004"
       id="path6223-0"
       inkscape:connector-curvature="0"
       sodipodi:nodetypes="csc" />
    <g
       id="rocket-spin"
       inkscape:label="#g4831"
       transform="translate(142.43151,28.284271)">
      <path
         style="fill:none;stroke:#000000;stroke-width:1.21603858;stroke-linecap:round;stroke-linejoin:miter;stroke-miterlimit:4;stroke-opacity:1;stroke-dasharray:none;stroke-dashoffset:0"
         d="m -32.15121,233.2173 -8.782876,29.7298 -6.713181,-1.98323 8.782876,-29.7298"
         id="path3735"
         inkscape:connector-curvature="0"
         sodipodi:nodetypes="cccc" />
      <path
         style="fill:none;stroke:#000000;stroke-width:1.29999995;stroke-linecap:round;stroke-linejoin:miter;stroke-miterlimit:4;stroke-opacity:1;stroke-dasharray:none;stroke-dashoffset:0"
         d="m -45.31554,246.01185 -4.249779,14.38539 -2.986147,-4.01036 2.266548,-7.6722 z"
         id="path3737"
         inkscape:connector-curvature="0"
         sodipodi:nodetypes="ccccc" />
      <path
         style="fill:none;stroke:#000000;stroke-width:1.29999995;stroke-linecap:round;stroke-linejoin:miter;stroke-miterlimit:4;stroke-opacity:1;stroke-dasharray:none;stroke-dashoffset:0"
         d="m -34.766256,249.12835 -4.249779,14.38539 4.68606,-1.7438 2.266548,-7.67221 z"
         id="path3739"
         inkscape:connector-curvature="0"
         sodipodi:nodetypes="ccccc" />
      <g
         transform="translate(69.052997,-1.3028486)"
         id="g3714">
        <path
           sodipodi:nodetypes="ccccc"
           inkscape:connector-curvature="0"
           id="path3716"
           d="m -85,215.36218 -7.981568,7.23142 0.482148,-4.44598 -3.267596,-3.05335 z"
           style="fill:#0088cc;fill-opacity:1;fill-rule:nonzero;stroke:none" />
        <path
           style="fill:none;stroke:#0088cc;stroke-width:3;stroke-linecap:round;stroke-linejoin:miter;stroke-miterlimit:4;stroke-opacity:1;stroke-dasharray:none;stroke-dashoffset:0;marker-end:none"
           d="m -98,268.36218 c -47,-22 -19,-44 5,-50"
           id="path3718"
           inkscape:connector-curvature="0"
           sodipodi:nodetypes="cc" />
      </g>
      <path
         inkscape:connector-curvature="0"
         id="path3745"
         d="m -36.696428,224.0586 3.303571,-6.60714 4.107143,-0.80357 -0.08929,5.44643 z"
         style="fill:#ffffff;fill-opacity:1;stroke:none" />
      <path
         style="fill:none;stroke:#000000;stroke-width:1.21603858;stroke-linecap:round;stroke-linejoin:miter;stroke-miterlimit:4;stroke-opacity:1;stroke-dasharray:none;stroke-dashoffset:0"
         d="m -38.864391,231.23407 2.833186,-9.59026 6.756425,-10.51673 -0.04324,12.49996 -2.833186,9.59026"
         id="path3733"
         inkscape:connector-curvature="0" />
    </g>
    <g
       id="staging"
       inkscape:label="#g4816"
       transform="translate(143.28955,54.065853)">
      <g
         id="g4651"
         transform="matrix(0.79069767,0,0,0.79069767,-34.724245,-384.33691)"
         style="fill:#ffffff;fill-opacity:1;stroke:#0088cc;stroke-width:3.16176462;stroke-linejoin:round;stroke-miterlimit:4;stroke-opacity:1;stroke-dasharray:none">
        <path
           sodipodi:nodetypes="csccssc"
           inkscape:connector-curvature="0"
           id="path4653"
           d="M -14.98735,2.1599973 C -14.813555,-0.16646234 -12.8709,-2 -10.5,-2 c 1.8171155,0 3.3826768,1.07703132 4.0931357,2.62754565 L -7.0139646,1.2399085 C -6.0104473,0.1690701 -4.5833585,-0.5 -3,-0.5 c 3.0375661,0 5.5,2.4624339 5.5,5.5 0,2.5676635 -1.7595003,4.7243738 -4.13857,5.3302"
           style="fill:#ffffff;fill-opacity:1;stroke:#0088cc;stroke-width:3.16176462;stroke-linecap:round;stroke-linejoin:round;stroke-miterlimit:4;stroke-opacity:1;stroke-dasharray:none;stroke-dashoffset:0"
           transform="translate(3.5,987.36218)" />
        <path
           sodipodi:nodetypes="cssccsccssc"
           inkscape:connector-curvature="0"
           id="path4655"
           d="M 2.8349612,10.385358 C 4.1578561,11.48595 5,13.144629 5,15 c 0,3.313708 -2.6862915,6 -6,6 -2.8765835,0 -5.2803624,-2.024317 -5.8644909,-4.726105 l 0.4155258,1.24607 C -7.3549849,18.433932 -8.6113863,19 -10,19 c -2.761424,0 -5,-2.238576 -5,-5 l 0.145973,0.341541 C -17.013161,13.284661 -18.5,11.065965 -18.5,8.5 -18.5,4.9101491 -15.589851,2 -12,2 c 0.570602,0 1.124031,0.073524 1.651331,0.2116149"
           style="fill:#ffffff;fill-opacity:1;stroke:#0088cc;stroke-width:3.16176462;stroke-linecap:round;stroke-linejoin:round;stroke-miterlimit:4;stroke-opacity:1;stroke-dasharray:none;stroke-dashoffset:0"
           transform="translate(-1,987.36218)" />
      </g>
      <path
         style="fill:none;stroke:#000000;stroke-width:1.21603858;stroke-linecap:round;stroke-linejoin:miter;stroke-miterlimit:4;stroke-opacity:1;stroke-dasharray:none;stroke-dashoffset:0"
         d="m -30.416,393.7274 8.593295,-5.11422 12.1019839,-3.12945 -8.5220279,9.14476 -8.593294,5.11422"
         id="path4661"
         inkscape:connector-curvature="0" />
      <g
         transform="matrix(0.89461863,0.44683051,-0.44683051,0.89461863,289.8308,121.68269)"
         id="g4668">
        <path
           sodipodi:nodetypes="cccc"
           inkscape:connector-curvature="0"
           id="path4670"
           d="m -166,411.36218 0,31 -7,0 0,-31"
           style="fill:none;stroke:#000000;stroke-width:1.21603858;stroke-linecap:round;stroke-linejoin:miter;stroke-miterlimit:4;stroke-opacity:1;stroke-dasharray:none;stroke-dashoffset:0" />
        <path
           sodipodi:nodetypes="ccccc"
           inkscape:connector-curvature="0"
           id="path4672"
           d="m -175,427.36218 0,15 -4,-3 0,-8 z"
           style="fill:none;stroke:#000000;stroke-width:1.29999995;stroke-linecap:round;stroke-linejoin:round;stroke-miterlimit:4;stroke-opacity:1;stroke-dasharray:none;stroke-dashoffset:0" />
        <path
           sodipodi:nodetypes="ccccc"
           inkscape:connector-curvature="0"
           id="path4674"
           d="m -164,427.36218 0,15 4,-3 0,-8 z"
           style="fill:none;stroke:#000000;stroke-width:1.29999995;stroke-linecap:round;stroke-linejoin:round;stroke-miterlimit:4;stroke-opacity:1;stroke-dasharray:none;stroke-dashoffset:0" />
      </g>
    </g>
    <g
       id="optimizer"
       inkscape:label="#g4793"
       transform="translate(140.8119,78.854362)">
      <g
         transform="translate(65.357143,-1.0714286)"
         id="g4746">
        <path
           sodipodi:nodetypes="ccccc"
           inkscape:connector-curvature="0"
           id="path4748"
           d="m -90.69231,590.23008 -10.00002,4 2,-4 -2,-4 z"
           style="fill:#0088cc;fill-opacity:1;fill-rule:nonzero;stroke:none" />
        <path
           sodipodi:nodetypes="cc"
           inkscape:connector-curvature="0"
           id="path4750"
           d="m -95.69231,590.23008 -15,0"
           style="fill:none;stroke:#0088cc;stroke-width:3;stroke-linecap:round;stroke-miterlimit:4;stroke-opacity:1;stroke-dasharray:none" />
      </g>
      <g
         id="g4752"
         transform="matrix(1.3366764,0,0,0.78936646,-20.999918,-217.52846)">
        <path
           inkscape:connector-curvature="0"
           id="path4754"
           d="m -29,1016.3622 0,-10 3.5,-12.00006 3.5,12.00006 0,10"
           style="fill:none;stroke:#000000;stroke-width:1.21603858;stroke-linecap:round;stroke-linejoin:miter;stroke-miterlimit:4;stroke-opacity:1;stroke-dasharray:none;stroke-dashoffset:0" />
        <path
           sodipodi:nodetypes="cccc"
           inkscape:connector-curvature="0"
           id="path4756"
           d="m -22,1016.3622 0,31 -7,0 0,-31"
           style="fill:none;stroke:#000000;stroke-width:1.21603858;stroke-linecap:round;stroke-linejoin:miter;stroke-miterlimit:4;stroke-opacity:1;stroke-dasharray:none;stroke-dashoffset:0" />
        <path
           sodipodi:nodetypes="ccccc"
           inkscape:connector-curvature="0"
           id="path4758"
           d="m -31,1032.3622 0,15 -4,-3 0,-8 z"
           style="fill:none;stroke:#000000;stroke-width:1.29999995;stroke-linecap:round;stroke-linejoin:round;stroke-miterlimit:4;stroke-opacity:1;stroke-dasharray:none;stroke-dashoffset:0" />
        <path
           sodipodi:nodetypes="ccccc"
           inkscape:connector-curvature="0"
           id="path4760"
           d="m -20,1032.3622 0,15 4,-3 0,-8 z"
           style="fill:none;stroke:#000000;stroke-width:1.29999995;stroke-linecap:round;stroke-linejoin:round;stroke-miterlimit:4;stroke-opacity:1;stroke-dasharray:none;stroke-dashoffset:0" />
      </g>
      <g
         transform="matrix(1,0,0,1.243545,9.1648333,-679.94172)"
         id="g4762">
        <path
           style="fill:none;stroke:#000000;stroke-width:1.21603858;stroke-linecap:round;stroke-linejoin:miter;stroke-miterlimit:4;stroke-opacity:1;stroke-dasharray:none;stroke-dashoffset:0"
           d="m -29,1016.3622 0,-10 3.5,-12.00006 3.5,12.00006 0,10"
           id="path4764"
           inkscape:connector-curvature="0" />
        <path
           style="fill:none;stroke:#000000;stroke-width:1.21603858;stroke-linecap:round;stroke-linejoin:miter;stroke-miterlimit:4;stroke-opacity:1;stroke-dasharray:none;stroke-dashoffset:0"
           d="m -22,1016.3622 0,31 -7,0 0,-31"
           id="path4766"
           inkscape:connector-curvature="0"
           sodipodi:nodetypes="cccc" />
        <path
           style="fill:none;stroke:#000000;stroke-width:1.29999995;stroke-linecap:round;stroke-linejoin:round;stroke-miterlimit:4;stroke-opacity:1;stroke-dasharray:none;stroke-dashoffset:0"
           d="m -31,1032.3622 0,15 -4,-3 0,-8 z"
           id="path4768"
           inkscape:connector-curvature="0"
           sodipodi:nodetypes="ccccc" />
        <path
           style="fill:none;stroke:#000000;stroke-width:1.29999995;stroke-linecap:round;stroke-linejoin:round;stroke-miterlimit:4;stroke-opacity:1;stroke-dasharray:none;stroke-dashoffset:0"
           d="m -20,1032.3622 0,15 4,-3 0,-8 z"
           id="path4770"
           inkscape:connector-curvature="0"
           sodipodi:nodetypes="ccccc" />
      </g>
    </g>
    <g
       transform="translate(283.28217,-73.863682)"
       id="g4919">
      <path
         style="fill:none;stroke:#000000;stroke-width:1.21603858;stroke-linecap:round;stroke-linejoin:miter;stroke-miterlimit:4;stroke-opacity:1;stroke-dasharray:none;stroke-dashoffset:0"
         d="m -173,236.36218 0,-10 3.5,-12.00004 3.5,12.00004 0,10"
         id="path4921"
         inkscape:connector-curvature="0" />
      <path
         style="fill:none;stroke:#000000;stroke-width:1.21603858;stroke-linecap:round;stroke-linejoin:miter;stroke-miterlimit:4;stroke-opacity:1;stroke-dasharray:none;stroke-dashoffset:0"
         d="m -166,236.36218 0,31 -7,0 0,-31"
         id="path4923"
         inkscape:connector-curvature="0"
         sodipodi:nodetypes="cccc" />
      <path
         style="fill:none;stroke:#000000;stroke-width:1.29999995;stroke-linecap:round;stroke-linejoin:miter;stroke-miterlimit:4;stroke-opacity:1;stroke-dasharray:none;stroke-dashoffset:0"
         d="m -175,252.36218 0,15 -4,-3 0,-8 z"
         id="path4925"
         inkscape:connector-curvature="0"
         sodipodi:nodetypes="ccccc" />
      <path
         style="fill:none;stroke:#000000;stroke-width:1.29999995;stroke-linecap:round;stroke-linejoin:miter;stroke-miterlimit:4;stroke-opacity:1;stroke-dasharray:none;stroke-dashoffset:0"
         d="m -164,252.36218 0,15 4,-3 0,-8 z"
         id="path4927"
         inkscape:connector-curvature="0"
         sodipodi:nodetypes="ccccc" />
    </g>
    <path
       sodipodi:nodetypes="ccccc"
       inkscape:connector-curvature="0"
       id="path4929"
       d="m 89.28216,142.06993 4,10.00002 -4,-2 -4,2 z"
       style="fill:#0088cc;fill-opacity:1;fill-rule:nonzero;stroke:none" />
    <path
       inkscape:connector-curvature="0"
       id="path4931"
       d="m 89.28216,150.78424 0,36.28571"
       style="fill:none;stroke:#0088cc;stroke-width:3;stroke-linecap:round;stroke-miterlimit:4;stroke-opacity:1;stroke-dasharray:none"
       sodipodi:nodetypes="cc" />
    <g
       transform="matrix(0,-1,1,0,-134.37022,-93.118974)"
       id="g3114">
      <path
         style="fill:none;stroke:#000000;stroke-width:1.21603858;stroke-linecap:round;stroke-linejoin:miter;stroke-miterlimit:4;stroke-opacity:1;stroke-dasharray:none;stroke-dashoffset:0"
         d="m -173,236.36218 0,-10 3.5,-12.00004 3.5,12.00004 0,10"
         id="path3116"
         inkscape:connector-curvature="0" />
      <path
         style="fill:none;stroke:#000000;stroke-width:1.21603858;stroke-linecap:round;stroke-linejoin:miter;stroke-miterlimit:4;stroke-opacity:1;stroke-dasharray:none;stroke-dashoffset:0"
         d="m -166,236.36218 0,31 -7,0 0,-31"
         id="path3118"
         inkscape:connector-curvature="0"
         sodipodi:nodetypes="cccc" />
      <path
         style="fill:none;stroke:#000000;stroke-width:1.29999995;stroke-linecap:round;stroke-linejoin:miter;stroke-miterlimit:4;stroke-opacity:1;stroke-dasharray:none;stroke-dashoffset:0"
         d="m -175,252.36218 0,15 -4,-3 0,-8 z"
         id="path3120"
         inkscape:connector-curvature="0"
         sodipodi:nodetypes="ccccc" />
      <path
         style="fill:none;stroke:#000000;stroke-width:1.29999995;stroke-linecap:round;stroke-linejoin:miter;stroke-miterlimit:4;stroke-opacity:1;stroke-dasharray:none;stroke-dashoffset:0"
         d="m -164,252.36218 0,15 4,-3 0,-8 z"
         id="path3122"
         inkscape:connector-curvature="0"
         sodipodi:nodetypes="ccccc" />
    </g>
    <path
       style="fill:none;stroke:#000000;stroke-width:1px;stroke-linecap:butt;stroke-linejoin:miter;stroke-opacity:1"
       d="m 72.991959,98.309936 63.000001,0 0,-7.57615"
       id="path3136"
       inkscape:connector-curvature="0"
       sodipodi:nodetypes="ccc" />
    <path
       style="fill:none;stroke:#000000;stroke-width:1px;stroke-linecap:butt;stroke-linejoin:miter;stroke-opacity:1"
       d="M 38.890873,-39.106582 39,-31.782974"
       id="path3140"
       inkscape:connector-curvature="0"
       transform="translate(66.991959,130.09291)" />
    <path
       style="fill:none;stroke:#000000;stroke-width:1px;stroke-linecap:butt;stroke-linejoin:miter;stroke-opacity:1"
       d="m 9,-39.359124 0,7.57615"
       id="path3148"
       inkscape:connector-curvature="0"
       transform="translate(66.991959,130.09291)" />
    <path
       style="fill:none;stroke:#000000;stroke-width:1px;stroke-linecap:butt;stroke-linejoin:miter;stroke-opacity:1"
       d="m 15,-36.076124 0,4.29315"
       id="path3150"
       inkscape:connector-curvature="0"
       transform="translate(66.991959,130.09291)" />
    <path
       style="fill:none;stroke:#000000;stroke-width:1px;stroke-linecap:butt;stroke-linejoin:miter;stroke-opacity:1"
       d="m 21,-36.076124 0,4.29315"
       id="path3152"
       inkscape:connector-curvature="0"
       transform="translate(66.991959,130.09291)" />
    <path
       style="fill:none;stroke:#000000;stroke-width:1px;stroke-linecap:butt;stroke-linejoin:miter;stroke-opacity:1"
       d="m 27,-36.076124 0,4.29315"
       id="path3154"
       inkscape:connector-curvature="0"
       transform="translate(66.991959,130.09291)" />
    <path
       style="fill:none;stroke:#000000;stroke-width:1px;stroke-linecap:butt;stroke-linejoin:miter;stroke-opacity:1"
       d="m 33,-36.076124 0,4.29315"
       id="path3156"
       inkscape:connector-curvature="0"
       transform="translate(66.991959,130.09291)" />
    <path
       style="fill:none;stroke:#000000;stroke-width:1px;stroke-linecap:butt;stroke-linejoin:miter;stroke-opacity:1"
       d="m 45,-36.076124 0,4.29315"
       id="path3158"
       inkscape:connector-curvature="0"
       transform="translate(66.991959,130.09291)" />
    <path
       style="fill:none;stroke:#000000;stroke-width:1px;stroke-linecap:butt;stroke-linejoin:miter;stroke-opacity:1"
       d="m 51,-36.076124 0,4.29315"
       id="path3160"
       inkscape:connector-curvature="0"
       transform="translate(66.991959,130.09291)" />
    <path
       style="fill:none;stroke:#000000;stroke-width:1px;stroke-linecap:butt;stroke-linejoin:miter;stroke-opacity:1"
       d="m 57,-36.076124 0,4.29315"
       id="path3162"
       inkscape:connector-curvature="0"
       transform="translate(66.991959,130.09291)" />
    <path
       style="fill:none;stroke:#000000;stroke-width:1px;stroke-linecap:butt;stroke-linejoin:miter;stroke-opacity:1"
       d="m 63,-36.076124 0,4.29315"
       id="path3164"
       inkscape:connector-curvature="0"
       transform="translate(66.991959,130.09291)" />
    <path
       inkscape:connector-curvature="0"
       id="path3172"
       d="m 138.99196,54.881026 -66.000001,0"
       style="fill:none;stroke:#0088cc;stroke-width:3;stroke-linecap:round;stroke-miterlimit:4;stroke-opacity:1;stroke-dasharray:none"
       sodipodi:nodetypes="cc" />
    <path
       sodipodi:nodetypes="cc"
       style="fill:none;stroke:#0088cc;stroke-width:3;stroke-linecap:round;stroke-miterlimit:4;stroke-opacity:1;stroke-dasharray:none"
       d="m 78.991959,44.881026 0,20"
       id="path3174"
       inkscape:connector-curvature="0" />
    <path
       inkscape:connector-curvature="0"
       id="path3176"
       d="m 78.991959,44.881026 0,20"
       style="fill:none;stroke:#0088cc;stroke-width:3;stroke-linecap:round;stroke-miterlimit:4;stroke-opacity:1;stroke-dasharray:none"
       sodipodi:nodetypes="cc" />
    <path
       sodipodi:nodetypes="cc"
       style="fill:none;stroke:#0088cc;stroke-width:3;stroke-linecap:round;stroke-miterlimit:4;stroke-opacity:1;stroke-dasharray:none"
       d="m 132.99196,44.881026 0,20"
       id="path5209"
       inkscape:connector-curvature="0" />
    <g
       transform="matrix(1,0,0,0.73004541,257.99196,-220.45364)"
       id="g3118">
      <path
         style="fill:none;stroke:#000000;stroke-width:1.21603858;stroke-linecap:round;stroke-linejoin:miter;stroke-miterlimit:4;stroke-opacity:1;stroke-dasharray:none;stroke-dashoffset:0"
         d="m -173,236.36218 0,-10 3.5,-12.00004 3.5,12.00004 0,10"
         id="path3121"
         inkscape:connector-curvature="0" />
      <path
         style="fill:none;stroke:#000000;stroke-width:1.21603858;stroke-linecap:round;stroke-linejoin:miter;stroke-miterlimit:4;stroke-opacity:1;stroke-dasharray:none;stroke-dashoffset:0"
         d="m -166,236.36218 0,31 -7,0 0,-31"
         id="path3123"
         inkscape:connector-curvature="0"
         sodipodi:nodetypes="cccc" />
      <path
         style="fill:none;stroke:#000000;stroke-width:1.29999995;stroke-linecap:round;stroke-linejoin:miter;stroke-miterlimit:4;stroke-opacity:1;stroke-dasharray:none;stroke-dashoffset:0"
         d="m -175,252.36218 0,15 -4,-3 0,-8 z"
         id="path3125"
         inkscape:connector-curvature="0"
         sodipodi:nodetypes="ccccc" />
      <path
         style="fill:none;stroke:#000000;stroke-width:1.29999995;stroke-linecap:round;stroke-linejoin:miter;stroke-miterlimit:4;stroke-opacity:1;stroke-dasharray:none;stroke-dashoffset:0"
         d="m -164,252.36218 0,15 4,-3 0,-8 z"
         id="path3127"
         inkscape:connector-curvature="0"
         sodipodi:nodetypes="ccccc" />
    </g>
    <path
       sodipodi:nodetypes="csc"
       inkscape:connector-curvature="0"
       id="path3141"
       d="m 83.384082,-3.34102 c -4,-4 -1.58114,-6.4189 0,-8 1.999996,-2 3.999996,-4.00003 0,-8.00003"
       style="fill:none;stroke:#0088cc;stroke-width:2.5;stroke-linecap:round;stroke-linejoin:round;stroke-miterlimit:4;stroke-opacity:1;stroke-dasharray:none;stroke-dashoffset:0" />
    <path
       sodipodi:nodetypes="csc"
       inkscape:connector-curvature="0"
       id="path3143"
       d="m 93.384078,-3.34102 c -4,-4 -1.58114,-6.4189 0,-8 2,-2 4,-4.00004 0,-8.00004"
       style="fill:none;stroke:#0088cc;stroke-width:2.5;stroke-linecap:round;stroke-linejoin:round;stroke-miterlimit:4;stroke-opacity:1;stroke-dasharray:none;stroke-dashoffset:0" />
    <path
       sodipodi:type="arc"
       style="fill:#0088cc;fill-opacity:1;stroke:none"
       id="path4292"
       sodipodi:cx="100"
       sodipodi:cy="-175.21188"
       sodipodi:rx="25.000002"
       sodipodi:ry="25.000002"
       d="M 74.999998,-175.21188 C 74.999999,-189.019 86.192881,-200.21189 100,-200.21189 l 0,25.00001 z"
       transform="matrix(0.44466631,0,0,0.44466631,74.52533,26.791848)"
       sodipodi:start="3.1415927"
       sodipodi:end="4.712389" />
    <path
       transform="matrix(0.44466631,0,0,0.44466631,74.52533,62.791848)"
       d="m 125,-175.21188 c 0,13.80712 -11.19288,25 -25,25 -13.80712,0 -25.000002,-11.19288 -25.000002,-25 0,-13.80712 11.192882,-25.00001 25.000002,-25.00001 13.80712,0 25,11.19289 25,25.00001 z"
       sodipodi:ry="25.000002"
       sodipodi:rx="25.000002"
       sodipodi:cy="-175.21188"
       sodipodi:cx="100"
       id="path4294"
       style="fill:none;stroke:#000000;stroke-width:2.24887729;stroke-linecap:butt;stroke-linejoin:miter;stroke-miterlimit:4;stroke-opacity:1;stroke-dasharray:none;stroke-dashoffset:0"
       sodipodi:type="arc" />
    <path
       transform="matrix(0.44466631,0,0,0.44466631,74.52533,26.791848)"
       d="m 125,-175.21188 c 0,13.80712 -11.19288,25 -25,25 l 0,-25 z"
       sodipodi:ry="25.000002"
       sodipodi:rx="25.000002"
       sodipodi:cy="-175.21188"
       sodipodi:cx="100"
       id="path4302"
       style="fill:#0088cc;fill-opacity:1;stroke:none"
       sodipodi:type="arc"
       sodipodi:start="0"
       sodipodi:end="1.5707963" />
    <path
       transform="matrix(0.44466631,0,0,0.44466631,74.52533,26.791848)"
       d="m 125,-175.21188 c 0,13.80712 -11.19288,25 -25,25 -13.80712,0 -25.000002,-11.19288 -25.000002,-25 0,-13.80712 11.192882,-25.00001 25.000002,-25.00001 13.80712,0 25,11.19289 25,25.00001 z"
       sodipodi:ry="25.000002"
       sodipodi:rx="25.000002"
       sodipodi:cy="-175.21188"
       sodipodi:cx="100"
       id="path4304"
       style="fill:none;stroke:#0088cc;stroke-width:5.62219334;stroke-miterlimit:4;stroke-opacity:1;stroke-dasharray:none"
       sodipodi:type="arc" />
    <path
       sodipodi:type="arc"
       style="fill:#000000;fill-opacity:1;stroke:#000000;stroke-width:2.90440893;stroke-miterlimit:4;stroke-opacity:1;stroke-dasharray:none"
       id="path4306"
       sodipodi:cx="100"
       sodipodi:cy="-175.21188"
       sodipodi:rx="25.000002"
       sodipodi:ry="25.000002"
       d="m 125,-175.21188 c 0,13.80712 -11.19288,25 -25,25 -13.80712,0 -25.000002,-11.19288 -25.000002,-25 0,-13.80712 11.192882,-25.00001 25.000002,-25.00001 13.80712,0 25,11.19289 25,25.00001 z"
       transform="matrix(0.34430413,0,0,0.34430413,84.56155,45.207202)" />
    <g
       transform="matrix(1,0,0,0.80451564,253.49196,-334.39222)"
       id="g4174">
      <path
         style="fill:none;stroke:#000000;stroke-width:1.21603858;stroke-linecap:round;stroke-linejoin:miter;stroke-miterlimit:4;stroke-opacity:1;stroke-dasharray:none;stroke-dashoffset:0"
         d="m -173,236.36218 0,-10 3.5,-12.00004 3.5,12.00004 0,10"
         id="path4176"
         inkscape:connector-curvature="0" />
      <path
         style="fill:none;stroke:#000000;stroke-width:1.21603858;stroke-linecap:round;stroke-linejoin:miter;stroke-miterlimit:4;stroke-opacity:1;stroke-dasharray:none;stroke-dashoffset:0"
         d="m -166,236.36218 0,31 -7,0 0,-31"
         id="path4178"
         inkscape:connector-curvature="0"
         sodipodi:nodetypes="cccc" />
      <path
         style="fill:none;stroke:#000000;stroke-width:1.29999995;stroke-linecap:round;stroke-linejoin:miter;stroke-miterlimit:4;stroke-opacity:1;stroke-dasharray:none;stroke-dashoffset:0"
         d="m -175,252.36218 0,15 -4,-3 0,-8 z"
         id="path4180"
         inkscape:connector-curvature="0"
         sodipodi:nodetypes="ccccc" />
      <path
         style="fill:none;stroke:#000000;stroke-width:1.29999995;stroke-linecap:round;stroke-linejoin:miter;stroke-miterlimit:4;stroke-opacity:1;stroke-dasharray:none;stroke-dashoffset:0"
         d="m -164,252.36218 0,15 4,-3 0,-8 z"
         id="path4182"
         inkscape:connector-curvature="0"
         sodipodi:nodetypes="ccccc" />
    </g>
    <g
       id="g4194"
       transform="matrix(1,0,0,0.80451564,275.49196,-334.39222)">
      <path
         inkscape:connector-curvature="0"
         id="path4196"
         d="m -173,236.36218 0,-10 3.5,-12.00004 3.5,12.00004 0,10"
         style="fill:none;stroke:#000000;stroke-width:1.21603858;stroke-linecap:round;stroke-linejoin:miter;stroke-miterlimit:4;stroke-opacity:1;stroke-dasharray:none;stroke-dashoffset:0" />
      <path
         sodipodi:nodetypes="cccc"
         inkscape:connector-curvature="0"
         id="path4198"
         d="m -166,236.36218 0,31 -7,0 0,-31"
         style="fill:none;stroke:#000000;stroke-width:1.21603858;stroke-linecap:round;stroke-linejoin:miter;stroke-miterlimit:4;stroke-opacity:1;stroke-dasharray:none;stroke-dashoffset:0" />
      <path
         sodipodi:nodetypes="ccccc"
         inkscape:connector-curvature="0"
         id="path4200"
         d="m -175,252.36218 0,15 -4,-3 0,-8 z"
         style="fill:none;stroke:#000000;stroke-width:1.29999995;stroke-linecap:round;stroke-linejoin:miter;stroke-miterlimit:4;stroke-opacity:1;stroke-dasharray:none;stroke-dashoffset:0" />
      <path
         sodipodi:nodetypes="ccccc"
         inkscape:connector-curvature="0"
         id="path4202"
         d="m -164,252.36218 0,15 4,-3 0,-8 z"
         style="fill:none;stroke:#000000;stroke-width:1.29999995;stroke-linecap:round;stroke-linejoin:miter;stroke-miterlimit:4;stroke-opacity:1;stroke-dasharray:none;stroke-dashoffset:0" />
    </g>
    <g
       transform="matrix(1,0,0,0.80451564,297.49196,-334.39222)"
       id="g4204">
      <path
         style="fill:none;stroke:#000000;stroke-width:1.21603858;stroke-linecap:round;stroke-linejoin:miter;stroke-miterlimit:4;stroke-opacity:1;stroke-dasharray:none;stroke-dashoffset:0"
         d="m -173,236.36218 0,-10 3.5,-12.00004 3.5,12.00004 0,10"
         id="path4206"
         inkscape:connector-curvature="0" />
      <path
         style="fill:none;stroke:#000000;stroke-width:1.21603858;stroke-linecap:round;stroke-linejoin:miter;stroke-miterlimit:4;stroke-opacity:1;stroke-dasharray:none;stroke-dashoffset:0"
         d="m -166,236.36218 0,31 -7,0 0,-31"
         id="path4208"
         inkscape:connector-curvature="0"
         sodipodi:nodetypes="cccc" />
      <path
         style="fill:none;stroke:#000000;stroke-width:1.29999995;stroke-linecap:round;stroke-linejoin:miter;stroke-miterlimit:4;stroke-opacity:1;stroke-dasharray:none;stroke-dashoffset:0"
         d="m -175,252.36218 0,15 -4,-3 0,-8 z"
         id="path4210"
         inkscape:connector-curvature="0"
         sodipodi:nodetypes="ccccc" />
      <path
         style="fill:none;stroke:#000000;stroke-width:1.29999995;stroke-linecap:round;stroke-linejoin:miter;stroke-miterlimit:4;stroke-opacity:1;stroke-dasharray:none;stroke-dashoffset:0"
         d="m -164,252.36218 0,15 4,-3 0,-8 z"
         id="path4212"
         inkscape:connector-curvature="0"
         sodipodi:nodetypes="ccccc" />
    </g>
    <rect
       y="167.8672"
       x="-117.62904"
       height="3"
       width="7"
       id="rect4214"
       style="fill:none;stroke:#000000;stroke-width:1.21603858;stroke-linecap:round;stroke-linejoin:miter;stroke-miterlimit:4;stroke-opacity:1;stroke-dasharray:none;stroke-dashoffset:0" />
    <path
       style="fill:none;stroke:#0088cc;stroke-width:1px;stroke-linecap:butt;stroke-linejoin:miter;stroke-opacity:1"
       d="m 81.070961,-116.19958 5.871512,0 -2.967323,6.12405 z"
       id="path4218"
       inkscape:connector-curvature="0" />
    <path
       inkscape:connector-curvature="0"
       id="path4220"
       d="m 103.07096,-116.19958 5.87151,0 -2.96732,12.12405 z"
       style="fill:none;stroke:#0088cc;stroke-width:1;stroke-linecap:butt;stroke-linejoin:miter;stroke-miterlimit:10;stroke-opacity:1;stroke-dasharray:none"
       sodipodi:nodetypes="cccc" />
    <path
       style="fill:none;stroke:#0088cc;stroke-width:1;stroke-linecap:butt;stroke-linejoin:miter;stroke-miterlimit:10;stroke-opacity:1;stroke-dasharray:none"
       d="m 125.07096,-116.19958 5.87151,0 -2.96732,16.12405 z"
       id="path4222"
       inkscape:connector-curvature="0"
       sodipodi:nodetypes="cccc" />
  </g>
</svg>
