<?xml version="1.0" encoding="UTF-8" standalone="no"?>
<!-- Created with Inkscape (http://www.inkscape.org/) -->

<svg
   xmlns:dc="http://purl.org/dc/elements/1.1/"
   xmlns:cc="http://creativecommons.org/ns#"
   xmlns:rdf="http://www.w3.org/1999/02/22-rdf-syntax-ns#"
   xmlns:svg="http://www.w3.org/2000/svg"
   xmlns="http://www.w3.org/2000/svg"
   xmlns:sodipodi="http://sodipodi.sourceforge.net/DTD/sodipodi-0.dtd"
   xmlns:inkscape="http://www.inkscape.org/namespaces/inkscape"
   width="64"
   height="64"
   id="svg2"
   version="1.1"
   inkscape:version="0.48.3.1 r9886"
   sodipodi:docname="stage_icon.svg"
   inkscape:export-filename="/home/natronics/Code/openrocket.github.com/resources/img/alt_icon.png"
   inkscape:export-xdpi="90"
   inkscape:export-ydpi="90">
  <defs
     id="defs4">
    <marker
       inkscape:stockid="Arrow1Send"
       orient="auto"
       refY="0.0"
       refX="0.0"
       id="Arrow1Send"
       style="overflow:visible;">
      <path
         id="path3893"
         d="M 0.0,0.0 L 5.0,-5.0 L -12.5,0.0 L 5.0,5.0 L 0.0,0.0 z "
         style="fill-rule:evenodd;stroke:#000000;stroke-width:1.0pt;"
         transform="scale(0.2) rotate(180) translate(6,0)" />
    </marker>
    <marker
       inkscape:stockid="Arrow1Sstart"
       orient="auto"
       refY="0.0"
       refX="0.0"
       id="Arrow1Sstart"
       style="overflow:visible">
      <path
         id="path3890"
         d="M 0.0,0.0 L 5.0,-5.0 L -12.5,0.0 L 5.0,5.0 L 0.0,0.0 z "
         style="fill-rule:evenodd;stroke:#000000;stroke-width:1.0pt"
         transform="scale(0.2) translate(6,0)" />
    </marker>
    <marker
       inkscape:stockid="Arrow1Lend"
       orient="auto"
       refY="0.0"
       refX="0.0"
       id="Arrow1Lend"
       style="overflow:visible;">
      <path
         id="path3881"
         d="M 0.0,0.0 L 5.0,-5.0 L -12.5,0.0 L 5.0,5.0 L 0.0,0.0 z "
         style="fill-rule:evenodd;stroke:#000000;stroke-width:1.0pt;"
         transform="scale(0.8) rotate(180) translate(12.5,0)" />
    </marker>
    <filter
       inkscape:collect="always"
       id="filter5954">
      <feGaussianBlur
         inkscape:collect="always"
         stdDeviation="0.36580557"
         id="feGaussianBlur5956" />
    </filter>
    <filter
       inkscape:collect="always"
       id="filter5958">
      <feGaussianBlur
         inkscape:collect="always"
         stdDeviation="0.36580557"
         id="feGaussianBlur5960" />
    </filter>
  </defs>
  <sodipodi:namedview
     id="base"
     pagecolor="#ffffff"
     bordercolor="#666666"
     borderopacity="1.0"
     inkscape:pageopacity="0.0"
     inkscape:pageshadow="2"
     inkscape:zoom="15.015625"
     inkscape:cx="32"
     inkscape:cy="32"
     inkscape:document-units="px"
     inkscape:current-layer="layer1"
     showgrid="true"
     borderlayer="true"
     inkscape:showpageshadow="false"
     inkscape:window-width="1920"
     inkscape:window-height="1148"
     inkscape:window-x="0"
     inkscape:window-y="27"
     inkscape:window-maximized="1"
     showguides="true"
     inkscape:guide-bbox="true">
    <inkscape:grid
       type="xygrid"
       id="grid2985"
       empspacing="5"
       visible="true"
       enabled="true"
       snapvisiblegridlinesonly="true" />
    <sodipodi:guide
       orientation="1,0"
       position="4,19"
       id="guide5712" />
  </sodipodi:namedview>
  <metadata
     id="metadata7">
    <rdf:RDF>
      <cc:Work
         rdf:about="">
        <dc:format>image/svg+xml</dc:format>
        <dc:type
           rdf:resource="http://purl.org/dc/dcmitype/StillImage" />
        <dc:title></dc:title>
      </cc:Work>
    </rdf:RDF>
  </metadata>
  <g
     inkscape:label="Layer 1"
     inkscape:groupmode="layer"
     id="layer1"
     transform="translate(0,-988.36218)">
    <g
       id="g5632">
      <path
         inkscape:connector-curvature="0"
         id="path3825-5"
         d="m -29,1016.3622 0,-10 3.5,-12.00006 3.5,12.00006 0,10"
         style="fill:none;stroke:#000000;stroke-width:1.21603858;stroke-linecap:round;stroke-linejoin:miter;stroke-miterlimit:4;stroke-opacity:1;stroke-dasharray:none;stroke-dashoffset:0" />
      <path
         sodipodi:nodetypes="cccc"
         inkscape:connector-curvature="0"
         id="path2987-9"
         d="m -22,1016.3622 0,31 -7,0 0,-31"
         style="fill:none;stroke:#000000;stroke-width:1.21603858;stroke-linecap:round;stroke-linejoin:miter;stroke-miterlimit:4;stroke-opacity:1;stroke-dasharray:none;stroke-dashoffset:0" />
      <path
         sodipodi:nodetypes="ccccc"
         inkscape:connector-curvature="0"
         id="path3757-5"
         d="m -31,1032.3622 0,15 -4,-3 0,-8 z"
         style="fill:none;stroke:#000000;stroke-width:1.29999994999999990;stroke-linecap:round;stroke-linejoin:round;stroke-miterlimit:4;stroke-opacity:1;stroke-dasharray:none;stroke-dashoffset:0" />
      <path
         sodipodi:nodetypes="ccccc"
         inkscape:connector-curvature="0"
         id="path3757-8-6"
         d="m -20,1032.3622 0,15 4,-3 0,-8 z"
         style="fill:none;stroke:#000000;stroke-width:1.29999994999999990;stroke-linecap:round;stroke-linejoin:round;stroke-miterlimit:4;stroke-opacity:1;stroke-dasharray:none;stroke-dashoffset:0" />
    </g>
    <path
       style="fill:#0088cc;fill-opacity:1;fill-rule:nonzero;stroke:none"
       d="m -45,999.36218 4,10.00002 -4,-2 -4,2 z"
       id="path4878-5"
       inkscape:connector-curvature="0"
       sodipodi:nodetypes="ccccc" />
    <path
       style="fill:none;stroke:#0088cc;stroke-width:3;stroke-linecap:round;stroke-miterlimit:4;stroke-opacity:1;stroke-dasharray:none"
       d="m -45,1017.3622 0,15"
       id="path4898"
       inkscape:connector-curvature="0" />
    <path
       style="fill:none;stroke:#000000;stroke-width:1.21603857999999998;stroke-linecap:round;stroke-linejoin:miter;stroke-miterlimit:4;stroke-opacity:1;stroke-dasharray:none;stroke-dashoffset:0;filter:url(#filter5954)"
       d="m 33.611159,1007.3316 7.821866,-6.2304 L 53,996.36218 l -7.205667,10.21422 -7.821866,6.2304"
       id="path3825-5-0"
       inkscape:connector-curvature="0" />
    <g
       id="g5929"
       transform="matrix(0.82633094,0.56318485,-0.56318485,0.82633094,584.48933,164.82022)"
       style="filter:url(#filter5958)">
      <path
         sodipodi:nodetypes="cccc"
         inkscape:connector-curvature="0"
         id="path2987-9-7"
         d="m 24,1017.3622 0,31 -7,0 0,-31"
         style="fill:none;stroke:#000000;stroke-width:1.21603858;stroke-linecap:round;stroke-linejoin:miter;stroke-miterlimit:4;stroke-opacity:1;stroke-dasharray:none;stroke-dashoffset:0" />
      <path
         sodipodi:nodetypes="ccccc"
         inkscape:connector-curvature="0"
         id="path3757-5-7"
         d="m 15,1033.3622 0,15 -4,-3 0,-8 z"
         style="fill:none;stroke:#000000;stroke-width:1.29999995;stroke-linecap:round;stroke-linejoin:round;stroke-miterlimit:4;stroke-opacity:1;stroke-dasharray:none;stroke-dashoffset:0" />
      <path
         sodipodi:nodetypes="ccccc"
         inkscape:connector-curvature="0"
         id="path3757-8-6-5"
         d="m 26,1033.3622 0,15 4,-3 0,-8 z"
         style="fill:none;stroke:#000000;stroke-width:1.29999995;stroke-linecap:round;stroke-linejoin:round;stroke-miterlimit:4;stroke-opacity:1;stroke-dasharray:none;stroke-dashoffset:0" />
    </g>
    <g
       id="g6004"
       transform="matrix(0.79069767,0,0,0.79069767,36.255814,224.70372)"
       style="fill:#ffffff;fill-opacity:1;stroke-width:3.16176471999999986;stroke-miterlimit:4;stroke-dasharray:none;stroke:#0088cc;stroke-opacity:1;stroke-linejoin:round">
      <path
         sodipodi:nodetypes="csccssc"
         inkscape:connector-curvature="0"
         id="path5986"
         d="M -14.98735,2.1599973 C -14.813555,-0.16646234 -12.8709,-2 -10.5,-2 c 1.8171155,0 3.3826768,1.07703132 4.0931357,2.62754565 L -7.0139646,1.2399085 C -6.0104473,0.1690701 -4.5833585,-0.5 -3,-0.5 c 3.0375661,0 5.5,2.4624339 5.5,5.5 0,2.5676635 -1.7595003,4.7243738 -4.13857,5.3302"
         style="fill:#ffffff;fill-opacity:1;stroke:#0088cc;stroke-width:3.16176462000000003;stroke-linecap:round;stroke-linejoin:round;stroke-miterlimit:4;stroke-opacity:1;stroke-dasharray:none;stroke-dashoffset:0"
         transform="translate(3.5,987.36218)" />
      <path
         sodipodi:nodetypes="cssccsccssc"
         inkscape:connector-curvature="0"
         id="path5992"
         d="M 2.8349612,10.385358 C 4.1578561,11.48595 5,13.144629 5,15 c 0,3.313708 -2.6862915,6 -6,6 -2.8765835,0 -5.2803624,-2.024317 -5.8644909,-4.726105 l 0.4155258,1.24607 C -7.3549849,18.433932 -8.6113863,19 -10,19 c -2.761424,0 -5,-2.238576 -5,-5 l 0.145973,0.341541 C -17.013161,13.284661 -18.5,11.065965 -18.5,8.5 -18.5,4.9101491 -15.589851,2 -12,2 c 0.570602,0 1.124031,0.073524 1.651331,0.2116149"
         style="fill:#ffffff;fill-opacity:1;stroke:#0088cc;stroke-width:3.16176462000000003;stroke-linecap:round;stroke-linejoin:round;stroke-miterlimit:4;stroke-opacity:1;stroke-dasharray:none;stroke-dashoffset:0"
         transform="translate(-1,987.36218)" />
    </g>
  </g>
</svg>
