<?xml version="1.0" encoding="utf-8"?>
<!-- Generator: Adobe Illustrator 18.1.0, SVG Export Plug-In . SVG Version: 6.00 Build 0)  -->
<svg version="1.1" id="Layer_1" xmlns="http://www.w3.org/2000/svg" xmlns:xlink="http://www.w3.org/1999/xlink" x="0px" y="0px"
	 viewBox="0 0 188 31" enable-background="new 0 0 188 31" xml:space="preserve">
<g>
	<path fill="#0993E2" d="M44.7,0.3C44.5,0.1,44.3,0,44.1,0H25.7c0.5,0.4,1,0.8,1.4,1.3c1.2,1.3,2.1,2.8,2.7,4.5
		C29.9,6.2,30,6.6,30.1,7h5.2l-2.5,14.5c-0.2,0.9-0.4,1.5-0.6,1.9c-0.2,0.4-0.7,0.5-1.5,0.5h-7.3l-1.3,7h9.2c1.5,0,2.8-0.1,3.9-0.4
		c1.1-0.3,2.1-0.7,2.8-1.4c0.8-0.7,1.4-1.6,2-2.7c0.5-1.2,0.9-2.6,1.2-4.4l3.6-21V0.9C44.9,0.6,44.8,0.4,44.7,0.3z"/>
	<path fill="#0993E2" d="M17.5,31h-6.4c-1.4,0-2.8-0.2-4.1-0.6c-1.3-0.4-2.5-1.1-3.6-1.9c-1-0.9-1.9-1.9-2.5-3.3
		C0.3,23.9,0,22.3,0,20.5C0,20,0,19.5,0.1,19c0.1-0.5,0.1-1,0.2-1.5l0.6-3.7c0.8-4.6,2.6-8,5.2-10.3c2.7-2.3,6.2-3.5,10.6-3.5
		c1.8,0,3.4,0.3,4.7,0.8c1.4,0.6,2.5,1.3,3.4,2.3c0.9,1,1.6,2.2,2.1,3.5c0.5,1.3,0.7,2.8,0.7,4.3c0,0.5,0,0.9-0.1,1.4
		c-0.1,0.5-0.1,1-0.2,1.4l-0.5,3c-0.2,0.8-0.6,1.3-1.3,1.3h-17c-0.1,0.4-0.1,0.8-0.2,1.1c0,0.4-0.1,0.7-0.1,1c0,1.4,0.4,2.3,1.1,2.9
		c0.7,0.5,1.9,0.8,3.6,0.8h6L17.5,31z M19.7,10.6c0-1.2-0.3-2.1-1-2.8c-0.6-0.6-1.7-0.9-3.2-0.9c-1.8,0-3.2,0.6-4.1,1.7
		c-0.9,1.1-1.6,2.6-2,4.4h10c0.1-0.4,0.1-0.8,0.2-1.2C19.6,11.3,19.7,10.9,19.7,10.6z"/>
	<g>
		<path fill="#303030" d="M66.5,8.4l-0.4,2.2c0,0.2-0.3,0.4-0.5,0.4h-3.5l-2.2,12.4c0,0.2-0.3,0.4-0.5,0.4h-2.8
			c-0.2,0-0.3-0.1-0.3-0.3c0,0,0-0.1,0-0.1L58.4,11h-3.5c-0.2,0-0.3-0.1-0.3-0.3c0,0,0-0.1,0-0.1L55,8.4C55,8.2,55.2,8,55.5,8h10.7
			C66.4,8,66.5,8.1,66.5,8.4C66.5,8.3,66.5,8.4,66.5,8.4z"/>
		<path fill="#303030" d="M77.3,17l-0.2,1.2c-0.1,0.3-0.3,0.5-0.5,0.5h-6.9c0,0.3-0.1,0.6-0.1,0.9c0,1.1,0.5,1.5,1.9,1.5
			c1.4,0,3.3-0.1,4.2-0.2c0,0,0,0,0.1,0c0.2,0,0.3,0.1,0.3,0.3c0,0,0,0,0,0.1l-0.3,1.6c-0.1,0.3-0.2,0.5-0.5,0.6
			c-1.4,0.3-2.7,0.5-4.5,0.5c-2.3,0-4.5-1.3-4.5-4.3c0-0.4,0-0.8,0.1-1.2l0.3-1.5c0.6-3.7,2.9-5.6,6.4-5.6c2.9,0,4.4,2,4.4,4.5
			C77.4,16.3,77.3,16.7,77.3,17z M72.4,14.2c-1.5,0-2.2,1-2.5,2.5H74c0.1-0.3,0.1-0.7,0.1-0.9C74.1,14.7,73.6,14.2,72.4,14.2z"/>
		<path fill="#303030" d="M88.4,12.2l-0.3,1.9c0,0.2-0.3,0.4-0.5,0.4c0,0,0,0,0,0c-0.8-0.1-1.4-0.1-2.6-0.1c-1.1,0-1.8,0.5-2.2,2.5
			l-0.3,1.8c-0.1,0.4-0.1,0.7-0.1,1c0,1.2,0.5,1.5,1.4,1.5c1.2,0,1.8-0.1,2.7-0.1c0,0,0,0,0,0c0.2,0,0.3,0.1,0.3,0.3c0,0,0,0,0,0.1
			l-0.3,1.9c-0.1,0.3-0.2,0.4-0.5,0.5C85.3,23.8,84.3,24,83,24c-2.5,0-4.2-1.5-4.2-4.1c0-0.4,0-0.8,0.1-1.3l0.3-1.8
			c0.7-4,2.8-5.4,6-5.4c1.3,0,2.2,0.2,2.8,0.3c0.3,0.1,0.4,0.1,0.4,0.3C88.4,12.1,88.4,12.2,88.4,12.2z"/>
		<path fill="#303030" d="M100.5,15.9l-1.3,7.5c0,0.2-0.3,0.4-0.5,0.4h-2.6c-0.2,0-0.3-0.1-0.3-0.3c0,0,0-0.1,0-0.1L97,16
			c0-0.2,0.1-0.4,0.1-0.6c0-0.8-0.5-1.1-1.6-1.1c-0.6,0-1.3,0.1-1.8,0.2l-1.6,9c0,0.2-0.3,0.4-0.5,0.4H89c-0.2,0-0.4-0.2-0.4-0.4
			c0,0,0,0,0-0.1l2.8-15.5c0-0.2,0.3-0.4,0.5-0.4h2.6c0.2,0,0.4,0.1,0.4,0.4c0,0,0,0,0,0.1l-0.7,3.8c0.6-0.1,1.5-0.3,2.3-0.3
			c2.8,0,4.1,1.5,4.1,3.6C100.6,15.3,100.6,15.6,100.5,15.9z"/>
		<path fill="#303030" d="M113.7,16.3l-1.3,7.1c0,0.2-0.3,0.4-0.5,0.4h-2.6c-0.2,0-0.3-0.2-0.3-0.4c0,0,0-0.1,0-0.1l1.3-7.1
			c0.1-0.4,0.1-0.7,0.1-0.9c0-0.8-0.5-1-1.2-1c-0.8,0-1.9,0.4-2.3,0.7l-1.5,8.4c0,0.2-0.3,0.4-0.5,0.4h-2.6c-0.2,0-0.4-0.2-0.4-0.4
			c0,0,0,0,0-0.1l2-11.3c0-0.2,0.3-0.4,0.5-0.4h2.3c0.2,0,0.4,0.1,0.4,0.4c0,0,0,0,0,0.1l-0.1,0.5c1-0.7,2.2-1.1,3.4-1.1
			c1.9,0,3.5,1,3.5,3.5C113.8,15.4,113.7,15.8,113.7,16.3z"/>
		<path fill="#303030" d="M126.6,17l-0.3,1.5c-0.7,3.6-2.6,5.5-6.4,5.5c-2.9,0-4.5-1.8-4.5-4.4c0-0.4,0-0.8,0.1-1.2l0.3-1.5
			c0.7-3.9,2.8-5.5,6.4-5.5c2.9,0,4.5,1.7,4.5,4.3C126.7,16.1,126.6,16.7,126.6,17z M121.6,14.4c-1.3,0-2,0.7-2.4,2.6l-0.3,1.5
			c-0.1,0.4-0.1,0.7-0.1,1c0,1.1,0.5,1.6,1.6,1.6c1.4,0,2-0.9,2.4-2.6l0.3-1.5c0.1-0.4,0.1-0.7,0.1-1
			C123.2,14.9,122.7,14.4,121.6,14.4z"/>
		<path fill="#303030" d="M133.9,7.9l-2.8,15.5c0,0.2-0.3,0.4-0.5,0.4h-2.6c-0.2,0-0.4-0.2-0.4-0.4c0,0,0,0,0-0.1l2.8-15.5
			c0-0.2,0.3-0.4,0.5-0.4h2.6C133.8,7.5,133.9,7.6,133.9,7.9C133.9,7.9,133.9,7.9,133.9,7.9z"/>
		<path fill="#303030" d="M145.4,17l-0.3,1.5c-0.7,3.6-2.6,5.5-6.4,5.5c-2.9,0-4.5-1.8-4.5-4.4c0-0.4,0-0.8,0.1-1.2l0.3-1.5
			c0.7-3.9,2.8-5.5,6.4-5.5c2.9,0,4.5,1.7,4.5,4.3C145.5,16.1,145.4,16.7,145.4,17z M140.4,14.4c-1.2,0-2,0.7-2.4,2.6l-0.3,1.5
			c-0.1,0.4-0.1,0.7-0.1,1c0,1.1,0.5,1.6,1.6,1.6c1.4,0,2-0.9,2.4-2.6l0.3-1.5c0.1-0.4,0.1-0.7,0.1-1
			C142,14.9,141.5,14.4,140.4,14.4z"/>
		<path fill="#303030" d="M158.4,12.6l-2,11.3c-0.5,3.1-2.4,4.3-6,4.3c-1.9,0-3.3-0.3-4-0.6c-0.2-0.1-0.3-0.2-0.3-0.4
			c0-0.1,0-0.1,0-0.2l0.3-1.4c0-0.2,0.2-0.4,0.5-0.4c0,0,0,0,0,0c0.9,0.1,3,0.3,4.1,0.3c1.5,0,1.8-0.3,2.1-1.6l0-0.2
			c-0.6,0.1-1.2,0.2-1.7,0.2c-2.6,0-4.7-1.4-4.7-4.2c0-0.4,0-0.8,0.1-1.2l0.3-1.5c0.7-4,2.6-5.5,6.4-5.5c2,0,3.7,0.3,4.5,0.5
			c0.4,0.1,0.6,0.2,0.6,0.4C158.5,12.5,158.4,12.5,158.4,12.6z M152.9,14.3c-1.5,0-2.1,1.1-2.4,2.6l-0.3,1.5c-0.1,0.4-0.1,0.7-0.1,1
			c0,1.3,0.7,1.6,1.7,1.6c0.5,0,1.1-0.1,1.7-0.1l1.1-6.4C154.3,14.4,153.7,14.3,152.9,14.3z"/>
		<path fill="#303030" d="M164.4,12l-2,11.4c0,0.2-0.3,0.4-0.5,0.4h-2.6c-0.2,0-0.3-0.1-0.3-0.3c0,0,0-0.1,0-0.1l2-11.4
			c0-0.2,0.3-0.4,0.5-0.4h2.6C164.3,11.6,164.4,11.8,164.4,12C164.4,12,164.4,12,164.4,12z M165.2,7.8l-0.3,2c0,0.2-0.3,0.4-0.5,0.4
			h-2.8c-0.2,0-0.3-0.1-0.3-0.3c0,0,0-0.1,0-0.1l0.3-2c0-0.2,0.3-0.4,0.5-0.4h2.8C165.1,7.4,165.2,7.5,165.2,7.8
			C165.2,7.8,165.2,7.8,165.2,7.8z"/>
		<path fill="#303030" d="M176.6,17l-0.2,1.2c-0.1,0.3-0.3,0.5-0.5,0.5H169c0,0.3-0.1,0.6-0.1,0.9c0,1.1,0.5,1.5,1.9,1.5
			c1.4,0,3.3-0.1,4.2-0.2c0,0,0,0,0.1,0c0.2,0,0.3,0.1,0.3,0.3c0,0,0,0,0,0.1l-0.3,1.6c-0.1,0.3-0.2,0.5-0.5,0.6
			c-1.4,0.3-2.7,0.5-4.5,0.5c-2.3,0-4.5-1.3-4.5-4.3c0-0.4,0-0.8,0.1-1.2l0.3-1.5c0.6-3.7,2.9-5.6,6.4-5.6c2.9,0,4.4,2,4.4,4.5
			C176.8,16.3,176.7,16.7,176.6,17z M171.8,14.2c-1.5,0-2.2,1-2.5,2.5h4.1c0.1-0.3,0.1-0.7,0.1-0.9C173.5,14.7,173,14.2,171.8,14.2z
			"/>
		<path fill="#303030" d="M188,12.4l-0.3,1.7c0,0.2-0.2,0.4-0.4,0.4c0,0,0,0-0.1,0c-0.6-0.1-2.4-0.3-3.5-0.3c0,0,0,0-0.1,0
			c-0.6,0-1.2,0-1.2,0.7c0,0.3,0.2,0.4,0.5,0.7l2.4,1.5c1.3,0.9,1.7,1.8,1.7,2.6c0,3.1-2.5,4.2-5.3,4.2c-1.2,0-2.8-0.2-3.8-0.5
			c-0.2-0.1-0.3-0.2-0.3-0.4c0,0,0-0.1,0-0.1l0.3-1.7c0-0.3,0.2-0.4,0.5-0.4c0,0,0,0,0.1,0c1.1,0.1,2.7,0.3,3.6,0.3
			c0.7,0,1.4-0.1,1.4-1c0-0.3-0.2-0.6-0.6-0.9l-2.5-1.6c-1-0.6-1.4-1.6-1.4-2.5c0-3,2.5-3.8,5-3.8c1.5,0,2.7,0.2,3.7,0.5
			c0.2,0.1,0.3,0.2,0.3,0.4C188,12.4,188,12.4,188,12.4z"/>
	</g>
</g>
</svg>
